#!OML:ASF I:\Actors\actors\Patient Classification 1\Patient 1\Session 1\Subject1.ASF
:FULLY-SPECIFIED
:DEGREES
578
root 0.230976 17.5597 8.12059 20.5876 -53.8085 -11.2092
lowerback 5.84265 -3.55658 6.12304
upperback -9.65874 -3.79789 4.38966
thorax -14.024 -2.22872 2.15715
lowerneck -14.7833 7.57931 8.90015
upperneck 20.3524 9.10633 -3.6375
head 9.45021 4.52341 -1.54375
rclavicle 1.19122e-013 -9.54166e-015
rhumerus -26.7298 50.2939 -90.7828
rradius 118.94
rwrist -5.83658
rhand -23.4139 -47.099
rfingers 7.12502
rthumb 3.04341 -1157.06
lclavicle 1.19122e-013 -9.54166e-015
lhumerus -3.97987 -34.4542 91.6058
lradius 81.454
lwrist 58.741
lhand 2.02744 -2.8516
lfingers 7.12502
lthumb 27.5308 25.1554
rfemur -24.9947 28.6683 13.4319
rtibia 8.47593
rfoot 3.028 18.5954
rtoes 15.9254
lfemur 3.95183 -15.4723 -21.2217
ltibia -0.527126
lfoot -37.4538 53.1199
ltoes 26.0543
579
root 0.145462 17.5649 8.0785 20.0751 -51.508 -11.0278
lowerback 5.71933 -3.31872 6.05441
upperback -9.73117 -3.47506 4.4657
thorax -14.0148 -2.06294 2.21437
lowerneck -14.5769 7.64141 9.03909
upperneck 20.0199 9.2637 -4.00526
head 9.33246 4.57442 -1.67882
rclavicle -1.14202e-013 -3.73715e-014
rhumerus -30.0377 49.349 -92.4186
rradius 118.843
rwrist -5.71596
rhand -25.2191 -46.8295
rfingers 7.12502
rthumb 1.29996 -1156.81
lclavicle -1.14202e-013 -3.73715e-014
lhumerus -8.67545 -35.5088 93.8516
lradius 83.6035
lwrist 55.9646
lhand 3.71177 -4.35589
lfingers 7.12502
lthumb 29.1405 23.3836
rfemur -24.1102 28.1515 14.0659
rtibia 8.33723
rfoot 2.29419 18.4682
rtoes 13.8788
lfemur 4.31552 -16.7678 -20.4306
ltibia -0.642332
lfoot -36.2135 52.9125
ltoes 24.8876
580
root 0.0588491 17.5675 8.03588 19.5014 -49.0226 -10.7717
lowerback 5.60357 -3.08038 6.10916
upperback -9.85256 -3.14763 4.39008
thorax -14.0894 -1.91762 2.04143
lowerneck -14.3108 7.60418 9.04807
upperneck 19.8279 9.23018 -3.98674
head 9.21419 4.5684 -1.68917
rclavicle 2.40529e-014 1.70955e-014
rhumerus -33.0713 48.2025 -93.8988
rradius 118.536
rwrist -4.16057
rhand -25.7066 -44.2851
rfingers 7.12502
rthumb 0.829072 -1154.26
lclavicle 2.40529e-014 1.70955e-014
lhumerus -13.3166 -36.0562 96.2764
lradius 85.1041
lwrist 53.6757
lhand 1.70878 -6.53423
lfingers 7.12502
lthumb 27.226 21.5209
rfemur -23.1804 27.434 14.7607
rtibia 8.24872
rfoot 1.40517 18.1686
rtoes 11.907
lfemur 4.57489 -18.0782 -19.6332
ltibia -0.719166
lfoot -34.6421 52.6704
ltoes 23.5755
581
root -0.0324891 17.5666 7.99057 19.0653 -46.4982 -10.6607
lowerback 5.21726 -2.76002 6.53586
upperback -9.8707 -2.71967 4.03919
thorax -13.9034 -1.77961 1.31356
lowerneck -14.1885 7.42044 9.01347
upperneck 19.7051 8.89119 -3.5378
head 9.10288 4.45866 -1.58281
rclavicle 6.80837e-015 -1.59028e-015
rhumerus -35.5559 46.5949 -95.1812
rradius 117.944
rwrist -1.78991
rhand -25.9676 -41.6578
rfingers 7.12502
rthumb 0.577039 -1151.64
lclavicle 6.80837e-015 -1.59028e-015
lhumerus -17.4923 -36.6813 98.2597
lradius 86.0804
lwrist 52.6496
lhand 4.54494 -5.15997
lfingers 7.12502
lthumb 29.9358 22.4389
rfemur -22.277 26.5678 15.6654
rtibia 8.26313
rfoot 0.337545 17.6939
rtoes 10.3478
lfemur 4.71866 -19.3593 -18.7022
ltibia -0.727575
lfoot -33.2046 52.3574
ltoes 22.2737
582
root -0.12759 17.579 7.9531 17.8818 -43.4664 -10.2914
lowerback 4.74196 -2.59746 7.38282
upperback -9.42849 -2.51939 3.31352
thorax -13.1617 -1.7922 -0.0505767
lowerneck -14.1771 7.14957 9.14196
upperneck 19.2596 8.34943 -2.96816
head 8.89318 4.27453 -1.48737
rclavicle -5.49143e-015 -3.71727e-014
rhumerus -36.9354 44.4894 -95.9546
rradius 117.46
rwrist -0.6161
rhand -26.438 -40.2543
rfingers 7.12502
rthumb 0.12269 -1150.23
lclavicle -5.49143e-015 -3.71727e-014
lhumerus -20.6752 -37.549 99.3542
lradius 86.5626
lwrist 53.0672
lhand 3.2742 -4.22831
lfingers 7.12502
lthumb 28.7225 23.5828
rfemur -20.3741 25.7354 16.7882
rtibia 7.96747
rfoot -1.51486 16.3526
rtoes 7.59502
lfemur 5.2634 -20.737 -18.0146
ltibia -0.583866
lfoot -31.1182 51.8564
ltoes 20.158
583
root -0.232935 17.5828 7.91407 16.8499 -40.3338 -9.78715
lowerback 4.6266 -2.37548 7.32408
upperback -9.40655 -2.24966 3.03964
thorax -13.0521 -1.66713 -0.374237
lowerneck -14.1894 6.79436 8.98606
upperneck 19.2582 7.8491 -2.75715
head 8.84659 4.05204 -1.4577
rclavicle 1.45734e-013 1.96797e-014
rhumerus -39.1179 42.8641 -96.6058
rradius 117.07
rwrist 0.81073
rhand -27.0229 -38.9253
rfingers 7.12502
rthumb -0.442246 -1148.9
lclavicle 1.45734e-013 1.96797e-014
lhumerus -24.214 -37.8486 101.421
lradius 86.7938
lwrist 54.3362
lhand 2.0087 -3.33659
lfingers 7.12502
lthumb 27.5129 24.6733
rfemur -18.6595 25.1176 17.6795
rtibia 7.54145
rfoot -3.73255 14.2299
rtoes 3.58972
lfemur 5.35614 -21.7836 -17.2478
ltibia -0.342972
lfoot -28.3749 51.1674
ltoes 17.3573
